<svg width="24" height="24" viewBox="0 0 24 24" fill="none" xmlns="http://www.w3.org/2000/svg">
<g opacity="0.6">
<path d="M8.40758 4.68299C7.87274 4.14815 7.6363 3.88588 7.63639 3.27257C7.6363 2.65949 7.87283 2.39722 8.40781 1.86214C8.83386 1.43619 8.83386 0.745578 8.40791 0.31953C7.98195 -0.106565 7.29111 -0.106424 6.86506 0.319436C6.26979 0.914656 5.45436 1.72991 5.45459 3.27252C5.45436 4.81537 6.26965 5.63057 6.86501 6.2257C7.39991 6.76068 7.63644 7.02309 7.63644 7.63626C7.63644 8.2388 8.12488 8.72719 8.72736 8.72719C9.32985 8.72719 9.81829 8.23884 9.81829 7.63626C9.81819 6.09346 9.00294 5.27821 8.40758 4.68299Z" fill="#9A9A9A"/>
<path d="M13.4984 4.68299C12.9636 4.14815 12.7271 3.88588 12.7272 3.27257C12.7271 2.65949 12.9636 2.39722 13.4986 1.86214C13.9247 1.43619 13.9247 0.745578 13.4987 0.31953C13.0728 -0.106565 12.3819 -0.106424 11.9559 0.319436C11.3606 0.914656 10.5452 1.73 10.5454 3.27252C10.5452 4.81537 11.3605 5.63057 11.9558 6.2257C12.4907 6.76068 12.7273 7.02309 12.7273 7.63626C12.7273 8.2388 13.2157 8.72719 13.8182 8.72719C14.4207 8.72719 14.9091 8.23884 14.9091 7.63626C14.9091 6.09346 14.0938 5.27821 13.4984 4.68299Z" fill="#9A9A9A"/>
<path d="M17.8782 18.9083H18.9091C18.9101 18.9083 18.9109 18.9081 18.9119 18.9081C21.1161 18.9067 22.9091 17.1129 22.9091 14.9082C22.9091 12.7026 21.1147 10.9082 18.9091 10.9082H17.4545H2.90901C2.30653 10.9082 1.81809 11.3967 1.81809 11.9991V15.6355C1.81809 18.0821 2.87409 20.2865 4.55419 21.8173H2.18174C1.57926 21.8173 1.09082 22.3057 1.09082 22.9083C1.09082 23.5107 1.57926 23.9992 2.18174 23.9992H10.1818H18.1818C18.7843 23.9992 19.2727 23.5107 19.2727 22.9083C19.2727 22.3057 18.7843 21.8173 18.1818 21.8173H15.8094C16.6924 21.0128 17.4026 20.0223 17.8782 18.9083ZM18.5455 15.6356V13.0901H18.9091C19.9117 13.0901 20.7273 13.9057 20.7273 14.9083C20.7273 15.9109 19.9117 16.7265 18.9091 16.7265C18.9086 16.7265 18.9082 16.7265 18.9077 16.7265H18.4743C18.521 16.3693 18.5455 16.0052 18.5455 15.6356Z" fill="#9A9A9A"/>
</g>
</svg>
