<svg width="24" height="24" viewBox="0 0 24 24" fill="none" xmlns="http://www.w3.org/2000/svg">
<g opacity="0.6" clip-path="url(#clip0_296_13042)">
<path d="M21.7501 7.80078C22.2501 7.80078 22.8001 7.65078 23.2001 7.25078C23.9501 6.50078 23.9501 5.25078 23.2001 4.50078L19.5501 0.850781C19.1501 0.450781 18.6501 0.300781 18.1501 0.300781C17.6501 0.300781 17.1501 0.500781 16.7501 0.850781C16.3501 1.25078 16.1501 1.75078 16.2001 2.30078L14.7501 0.850781C14.3501 0.450781 13.8501 0.300781 13.3501 0.300781C12.8501 0.300781 12.3501 0.500781 11.9501 0.850781C11.2001 1.60078 11.2001 2.85078 11.9501 3.60078L14.9501 6.60078L6.6001 15.0508L5.9001 14.3508L3.6001 12.0008C2.8501 11.2508 1.6001 11.2508 0.850098 12.0008C0.100098 12.7508 0.100098 14.0008 0.850098 14.7508L2.3001 16.2008H2.2501C1.7501 16.2008 1.2501 16.4008 0.850098 16.7508C0.100098 17.5008 0.100098 18.7508 0.850098 19.5008L4.5001 23.1508C5.2501 23.9008 6.5501 23.9008 7.2501 23.1508C7.6001 22.8008 7.8001 22.3008 7.8001 21.7508V21.7008L9.2501 23.1508C10.0001 23.9008 11.2501 23.9008 12.0001 23.1508C12.7501 22.4008 12.7501 21.1508 12.0001 20.4008L9.6501 18.0508L8.9501 17.3508L17.4001 8.90078L18.1001 9.60078L20.4501 11.9508C21.2001 12.7008 22.4501 12.7008 23.2001 11.9508C23.9501 11.2008 23.9501 9.95078 23.2001 9.20078L21.7501 7.80078Z" fill="#9A9A9A"/>
</g>
<defs>
<clipPath id="clip0_296_13042">
<rect width="24" height="24" fill="white"/>
</clipPath>
</defs>
</svg>
