<svg width="595" height="155" viewBox="0 0 595 155" fill="none" xmlns="http://www.w3.org/2000/svg">
<path d="M237.877 44.2631L230.819 37.3925L237.877 30.522L244.935 37.3925L237.877 44.2631ZM509.931 100.935C500.042 95.2719 497.397 88.9218 494.025 74.4936C493.837 74.1397 493.837 73.64 493.671 73.286C492.796 69.6842 491.547 66.2489 489.611 62.9802C488.903 61.9392 488.195 60.919 487.487 60.0654C485.01 57.1506 481.845 54.7355 478.306 52.8617C477.764 52.5078 477.244 52.3412 476.536 52.0081C475.308 51.4876 474.246 50.9671 472.996 50.4674C469.103 49.0933 450.032 41.8896 449.678 41.7023L449.324 42.5559C449.512 42.5559 457.09 45.8246 461.337 47.6984C470.352 62.2931 459.401 86.3401 509.91 100.935H509.931ZM82.4358 76.3882C78.7299 76.3882 75.1905 74.1605 73.7747 70.7252L46.0426 0.999336H38.2768L10.0034 71.3914C8.77498 74.3062 5.94348 76.2008 2.59147 76.2008H0.821777V76.8879H16.3742V76.2008H11.6065C10.1907 76.2008 9.3163 74.8267 9.8368 73.6192L18.8518 51.3002H47.8331L56.8482 73.6192C57.3687 74.8267 56.3277 76.2008 55.0785 76.2008H50.6646V76.8879H83.5185V76.2008H82.4566V76.3674L82.4358 76.3882ZM47.4584 50.8006H18.8518L33.1551 15.0736L47.4584 50.7797V50.8006ZM95.8647 0.999336V1.68639H100.112C102.048 1.68639 103.651 3.22707 103.651 5.12168V73.1195C103.651 75.0141 102.069 76.5548 100.112 76.5548H95.8647V77.2418H128.198V76.5548H123.951C122.014 76.5548 120.411 75.0141 120.411 73.1195V40.3281H127.469C135.423 40.3281 142.127 46.6782 142.127 54.569H142.834V25.546H142.127C142.127 33.2702 135.589 39.8076 127.469 39.8076H120.411V1.68639H134.194C143.73 1.68639 151.329 9.24402 151.329 18.3423H152.037V1.16589L95.8647 0.999336ZM200.089 1.68639H204.336V0.999336H172.003V1.68639H176.25C178.187 1.68639 179.79 3.22707 179.79 5.12168V73.1195C179.79 75.0141 178.207 76.5548 176.25 76.5548H172.003V77.2418H204.336V76.5548H200.089C198.153 76.5548 196.55 75.0141 196.55 73.1195V4.95512C196.55 3.24789 198.132 1.68639 200.089 1.68639ZM324.613 6.49579C320.553 3.06051 315.077 0.999336 309.248 0.999336H267.566V1.68639H271.814C273.75 1.68639 275.353 3.22707 275.353 5.12168V73.1195C275.353 75.0141 273.771 76.5548 271.814 76.5548H267.566V77.2418H299.9V76.5548H295.653C293.716 76.5548 292.113 75.0141 292.113 73.1195V43.0764H309.248C321.781 43.0764 331.504 34.6651 331.504 22.1315C331.317 15.7815 328.86 10.4516 324.613 6.49579ZM291.947 1.68639H299.005C306.416 1.68639 314.016 12.3254 314.016 21.9442C314.016 31.563 306.416 42.2019 299.005 42.2019H291.947V1.68639ZM414.18 76.3882C410.474 76.3882 406.935 74.1605 405.519 70.7252L377.787 0.999336H370.021L341.935 71.3914C340.707 74.3062 337.875 76.2008 334.523 76.2008H332.587V76.8879H348.14V76.2008H343.372C341.956 76.2008 341.082 74.8267 341.602 73.6192L350.617 51.3002H379.578L388.593 73.6192C389.134 74.8267 388.072 76.2008 386.823 76.2008H382.409V76.8879H415.263V76.2008H414.201V76.3674L414.18 76.3882ZM379.203 50.8006H350.575L364.879 15.0944L379.182 50.8006H379.203ZM474.954 41.8688C484.323 39.2871 490.506 32.604 490.506 21.9442C490.485 9.41058 480.95 0.999336 468.229 0.999336H426.547V1.68639H430.795C432.731 1.68639 434.334 3.22707 434.334 5.12168V73.1195C434.334 75.0141 432.752 76.5548 430.795 76.5548H426.547V77.2418H458.881V76.5548H454.633C452.697 76.5548 451.094 75.0141 451.094 73.1195V43.0764H454.8C474.225 43.0764 473.871 42.0354 474.933 41.8688H474.954ZM451.094 1.68639H458.152C465.564 1.68639 473.163 12.3254 473.163 21.9442C473.163 31.563 465.564 42.2019 458.152 42.2019H451.094V1.68639ZM583.404 71.3914L547.365 29.6683L572.62 6.47497C575.993 3.37281 580.406 1.66557 584.987 1.66557V0.978516H569.08V1.66557H572.974C574.389 1.66557 575.097 3.20625 574.036 4.24724L536.06 39.0998V4.95512C536.06 3.06051 537.642 1.51983 539.599 1.51983H543.847V0.999336H511.513V1.68639H515.761C517.697 1.68639 519.3 3.22707 519.3 5.12168V73.1195C519.3 75.0141 517.718 76.5548 515.761 76.5548H511.513V77.2418H543.847V76.5548H539.599C537.663 76.5548 536.06 75.0141 536.06 73.1195V42.3893L562.73 73.4734C563.792 74.681 562.897 76.3882 561.315 76.3882H558.67V77.0753H594.168V76.3882C589.921 76.3882 585.861 74.4936 583.384 71.4123L583.404 71.3914ZM116.601 142.658H63.2815V143.324H116.601V142.658ZM531.729 142.658H478.41V143.324H531.729V142.658Z" fill="#47515D"/>
<path d="M155.755 150.903V133.414H168.547V134.988H157.579V140.709H163.301C165.366 140.709 166.931 141.134 167.997 141.983C169.08 142.816 169.621 144.049 169.621 145.681C169.621 147.363 169.038 148.654 167.873 149.554C166.723 150.453 165.066 150.903 162.901 150.903H155.755ZM157.579 149.429H162.876C164.491 149.429 165.707 149.121 166.523 148.504C167.356 147.871 167.773 146.955 167.773 145.756C167.773 143.374 166.14 142.183 162.876 142.183H157.579V149.429Z" fill="#47515D"/>
<path d="M178.88 150.903V133.414H180.704V147.905L191.897 133.414H193.571V150.903H191.747V136.437L180.554 150.903H178.88Z" fill="#47515D"/>
<path d="M202.395 148.804L203.07 147.48C203.836 148.146 204.694 148.646 205.643 148.979C206.609 149.295 207.575 149.462 208.541 149.479C209.507 149.479 210.39 149.337 211.19 149.054C212.006 148.771 212.664 148.354 213.163 147.805C213.663 147.238 213.913 146.555 213.913 145.756C213.913 144.74 213.505 143.957 212.689 143.408C211.889 142.858 210.773 142.583 209.341 142.583H205.593V141.084H209.241C210.474 141.084 211.431 140.826 212.114 140.31C212.814 139.777 213.163 139.044 213.163 138.111C213.163 137.445 212.964 136.878 212.564 136.412C212.181 135.929 211.648 135.563 210.965 135.313C210.299 135.046 209.549 134.905 208.716 134.888C207.884 134.855 207.017 134.963 206.118 135.213C205.235 135.446 204.377 135.821 203.545 136.337L202.945 134.813C203.978 134.197 205.052 133.772 206.168 133.539C207.284 133.289 208.367 133.206 209.416 133.289C210.465 133.372 211.406 133.614 212.239 134.014C213.089 134.413 213.763 134.938 214.263 135.588C214.762 136.237 215.012 137.012 215.012 137.911C215.012 138.744 214.796 139.477 214.363 140.11C213.946 140.743 213.355 141.234 212.589 141.584C211.839 141.917 210.948 142.083 209.916 142.083L210.015 141.534C211.181 141.534 212.189 141.717 213.039 142.083C213.905 142.45 214.571 142.974 215.037 143.657C215.52 144.324 215.762 145.106 215.762 146.006C215.762 146.855 215.545 147.613 215.112 148.279C214.696 148.929 214.113 149.479 213.363 149.928C212.63 150.361 211.806 150.678 210.89 150.878C209.974 151.061 209.016 151.111 208.017 151.028C207.017 150.944 206.035 150.728 205.069 150.378C204.103 150.012 203.212 149.487 202.395 148.804Z" fill="#47515D"/>
<path d="M238.141 133.414H239.965V150.903H238.141V133.414ZM227.198 150.903H225.349V133.414H227.198V150.903ZM238.316 142.833H226.998V141.209H238.316V142.833Z" fill="#47515D"/>
<path d="M252.514 141.234H261.758V142.808H252.514V141.234ZM252.714 149.304H263.232V150.903H250.865V133.414H262.857V135.013H252.714V149.304Z" fill="#47515D"/>
<path d="M279.927 151.053C278.611 151.053 277.395 150.836 276.279 150.403C275.163 149.953 274.197 149.329 273.381 148.529C272.565 147.73 271.924 146.789 271.457 145.706C271.008 144.623 270.783 143.441 270.783 142.158C270.783 140.876 271.008 139.693 271.457 138.611C271.924 137.528 272.565 136.587 273.381 135.787C274.214 134.988 275.188 134.372 276.304 133.939C277.42 133.489 278.636 133.264 279.952 133.264C281.218 133.264 282.409 133.481 283.525 133.914C284.64 134.33 285.582 134.963 286.348 135.812L285.173 136.987C284.457 136.254 283.666 135.729 282.8 135.413C281.934 135.08 281.001 134.913 280.002 134.913C278.952 134.913 277.978 135.096 277.079 135.463C276.179 135.812 275.396 136.32 274.73 136.987C274.064 137.636 273.539 138.402 273.156 139.285C272.79 140.151 272.607 141.109 272.607 142.158C272.607 143.208 272.79 144.174 273.156 145.056C273.539 145.923 274.064 146.689 274.73 147.355C275.396 148.005 276.179 148.513 277.079 148.879C277.978 149.229 278.952 149.404 280.002 149.404C281.001 149.404 281.934 149.237 282.8 148.904C283.666 148.571 284.457 148.038 285.173 147.305L286.348 148.479C285.582 149.329 284.64 149.97 283.525 150.403C282.409 150.836 281.209 151.053 279.927 151.053Z" fill="#47515D"/>
<path d="M305.249 144.907V143.358H311.795V144.907H305.249Z" fill="#47515D"/>
<path d="M332.77 150.903V133.414H334.594V149.304H345.162V133.414H346.986V150.903H332.77ZM348.035 155V150.403L348.51 150.903H345.162V149.304H349.759V155H348.035Z" fill="#47515D"/>
<path d="M360.081 141.234H369.325V142.808H360.081V141.234ZM360.281 149.304H370.799V150.903H358.432V133.414H370.425V135.013H360.281V149.304Z" fill="#47515D"/>
<path d="M392.69 133.414H394.514V150.903H392.69V133.414ZM381.747 150.903H379.898V133.414H381.747V150.903ZM392.865 142.833H381.547V141.209H392.865V142.833Z" fill="#47515D"/>
<path d="M408.886 150.903V134.513L409.386 135.013H402.74V133.414H416.856V135.013H410.236L410.71 134.513V150.903H408.886Z" fill="#47515D"/>
<path d="M425.098 150.903V133.414H431.644C433.126 133.414 434.401 133.655 435.467 134.138C436.533 134.605 437.349 135.288 437.915 136.187C438.498 137.07 438.789 138.144 438.789 139.41C438.789 140.643 438.498 141.709 437.915 142.608C437.349 143.491 436.533 144.174 435.467 144.657C434.401 145.14 433.126 145.381 431.644 145.381H426.123L426.947 144.507V150.903H425.098ZM426.947 144.657L426.123 143.757H431.594C433.343 143.757 434.667 143.383 435.567 142.633C436.483 141.867 436.941 140.793 436.941 139.41C436.941 138.011 436.483 136.928 435.567 136.162C434.667 135.396 433.343 135.013 431.594 135.013H426.123L426.947 134.138V144.657Z" fill="#47515D"/>
</svg>
