<svg width="32" height="32" viewBox="0 0 32 32" fill="none" xmlns="http://www.w3.org/2000/svg">
<path d="M14.6667 13.333L18.6667 17.333" stroke="white" stroke-width="1.2" stroke-linecap="round" stroke-linejoin="round"/>
<path d="M8.66669 28.0003C9.58967 28.0003 10.4919 27.7266 11.2594 27.2139C12.0268 26.7011 12.6249 25.9722 12.9781 25.1195C13.3313 24.2668 13.4238 23.3285 13.2437 22.4232C13.0636 21.518 12.6192 20.6865 11.9665 20.0338C11.3139 19.3812 10.4824 18.9367 9.57711 18.7567C8.67187 18.5766 7.73356 18.669 6.88084 19.0222C6.02811 19.3754 5.29928 19.9736 4.7865 20.741C4.27372 21.5084 4.00003 22.4107 4.00003 23.3337C4.00027 24.2211 3.66276 25.0754 3.05603 25.723C2.86907 25.9095 2.7417 26.1473 2.69006 26.4062C2.63841 26.6652 2.66482 26.9336 2.76593 27.1776C2.86705 27.4215 3.03831 27.6299 3.25802 27.7764C3.47772 27.9229 3.73597 28.0008 4.00003 28.0003H8.66669Z" stroke="white" stroke-width="1.2" stroke-linecap="round" stroke-linejoin="round"/>
<path d="M13.292 22.708L28.504 7.49864C29.0348 6.96785 29.333 6.24795 29.333 5.4973C29.333 4.74666 29.0348 4.02676 28.504 3.49597C27.9732 2.96518 27.2533 2.66699 26.5026 2.66699C25.752 2.66699 25.0321 2.96518 24.5013 3.49597L9.28931 18.708" stroke="white" stroke-width="1.2" stroke-linecap="round" stroke-linejoin="round"/>
</svg>
