<svg width="72" height="72" viewBox="0 0 72 72" fill="none" xmlns="http://www.w3.org/2000/svg">
<g clip-path="url(#clip0_370_92954)">
<path d="M7.55442 36.6082C7.33368 38.2852 6.20549 39.2614 4.52546 39.2614C2.57564 39.2614 1.30029 37.9348 1.30029 35.9198C1.30029 33.8298 2.58791 32.4531 4.54999 32.4531C6.24228 32.4531 7.37047 33.3918 7.51763 34.8936H5.81307C5.69044 34.1802 5.23671 33.7797 4.56225 33.7797C3.618 33.7797 3.0539 34.5557 3.0539 35.8823C3.0539 37.1713 3.59347 37.9097 4.52546 37.9097C5.2735 37.9097 5.7395 37.4592 5.87439 36.6082H7.55442Z" fill="black"/>
<path d="M20.1465 35.523L26.278 31.9473V39.0988L20.1465 35.523Z" fill="black"/>
<path d="M35.0369 56.9774C46.6472 56.9774 56.0592 47.3719 56.0592 35.5229C56.0592 23.6739 46.6472 14.0684 35.0369 14.0684C23.4266 14.0684 14.0146 23.6739 14.0146 35.5229C14.0146 47.3719 23.4266 56.9774 35.0369 56.9774Z" stroke="black" stroke-width="2"/>
<path d="M35.0371 67.7042L39.4512 70.2228L39.3815 65.0622L35.0371 67.7042ZM35.0371 3.78749C35.3297 3.78749 35.6213 3.79162 35.9118 3.7998L35.936 2.9062C35.6374 2.89779 35.3377 2.89355 35.0371 2.89355V3.78749ZM37.6535 3.89822C38.236 3.94773 38.8138 4.01363 39.3868 4.09545L39.5082 3.21013C38.9191 3.12601 38.325 3.05826 37.7262 3.00736L37.6535 3.89822ZM41.1062 4.39155C41.6788 4.50715 42.2457 4.63879 42.8065 4.786L43.0247 3.92024C42.448 3.76886 41.8651 3.63348 41.2763 3.5146L41.1062 4.39155ZM44.4833 5.27814C45.0391 5.45879 45.5881 5.65495 46.1299 5.86614L46.4424 5.03104C45.8853 4.81387 45.3207 4.61213 44.749 4.42635L44.4833 5.27814ZM47.7411 6.54806C48.2729 6.79126 48.7967 7.04926 49.3121 7.32156L49.7148 6.52768C49.1848 6.2477 48.6461 5.98238 48.0994 5.73229L47.7411 6.54806ZM50.8379 8.184C51.3391 8.48638 51.8313 8.80272 52.3139 9.13247L52.8012 8.38964C52.305 8.05061 51.799 7.72537 51.2836 7.41447L50.8379 8.184ZM53.7358 10.1639C54.2006 10.5214 54.6552 10.8919 55.0991 11.2749L55.6646 10.5922C55.2082 10.1985 54.7408 9.81759 54.263 9.45005L53.7358 10.1639ZM56.3995 12.4617C56.8221 12.8696 57.2335 13.2894 57.6331 13.7207L58.2695 13.1065C57.8587 12.6631 57.4358 12.2316 57.0014 11.8122L56.3995 12.4617ZM58.796 15.0478C59.1713 15.5009 59.5343 15.9648 59.8846 16.4391L60.5841 15.9011C60.224 15.4134 59.8507 14.9365 59.465 14.4707L58.796 15.0478ZM60.8953 17.8903C61.2184 18.3828 61.5283 18.8851 61.8247 19.3967L62.5787 18.9417C62.274 18.4158 61.9553 17.8994 61.6231 17.393L60.8953 17.8903ZM62.6697 20.9538C62.9365 21.4798 63.1894 22.0145 63.4276 22.5571L64.227 22.1915C63.9819 21.6335 63.7219 21.0838 63.4476 20.5429L62.6697 20.9538ZM64.0958 24.2015C64.3027 24.7544 64.4949 25.3147 64.6719 25.8819L65.5066 25.6107C65.3245 25.0273 65.1269 24.4511 64.9141 23.8825L64.0958 24.2015ZM65.1541 27.5932C65.2984 28.1655 65.4274 28.744 65.5407 29.3284L66.4 29.1549C66.2835 28.5541 66.1509 27.9591 66.0025 27.3705L65.1541 27.5932ZM65.8308 31.0832C65.9109 31.6679 65.9756 32.2577 66.024 32.8521L66.897 32.7779C66.8471 32.1669 66.7807 31.5605 66.6983 30.9593L65.8308 31.0832ZM66.1205 34.6297C66.1285 34.9262 66.1326 35.2238 66.1326 35.5223H67.0085C67.0085 35.2155 67.0044 34.9097 66.996 34.605L66.1205 34.6297ZM66.1326 35.5223C66.1326 35.8209 66.1285 36.1185 66.1205 36.415L66.996 36.4397C67.0044 36.135 67.0085 35.8291 67.0085 35.5223H66.1326ZM66.024 38.1925C65.9756 38.787 65.9109 39.3767 65.8308 39.9615L66.6983 40.0854C66.7807 39.4842 66.8471 38.8778 66.897 38.2667L66.024 38.1925ZM65.5407 41.7163C65.4274 42.3006 65.2984 42.8792 65.1541 43.4515L66.0025 43.6742C66.1509 43.0856 66.2835 42.4907 66.4 41.8898L65.5407 41.7163ZM64.6719 45.1628C64.4949 45.73 64.3027 46.2903 64.0958 46.8432L64.9141 47.1621C65.1269 46.5936 65.3245 46.0174 65.5066 45.434L64.6719 45.1628ZM63.4276 48.4876C63.1894 49.0302 62.9365 49.5649 62.6697 50.0909L63.4476 50.5018C63.7219 49.961 63.9819 49.4112 64.227 48.8532L63.4276 48.4876ZM61.8247 51.648C61.5283 52.1595 61.2184 52.6618 60.8953 53.1544L61.6231 53.6517C61.9553 53.1453 62.274 52.6289 62.5787 52.1029L61.8247 51.648ZM59.8846 54.6055C59.5343 55.0799 59.1713 55.5438 58.796 55.9969L59.465 56.574C59.8507 56.1082 60.224 55.6312 60.5841 55.1436L59.8846 54.6055ZM57.6331 57.324C57.2335 57.7553 56.8221 58.1751 56.3995 58.5829L57.0014 59.2325C57.4358 58.8132 57.8586 58.3816 58.2695 57.9383L57.6331 57.324ZM55.0991 59.7698C54.6552 60.1528 54.2006 60.5232 53.7358 60.8808L54.263 61.5946C54.7408 61.2271 55.2082 60.8462 55.6646 60.4525L55.0991 59.7698ZM52.3139 61.9122C51.8313 62.242 51.3391 62.5583 50.8379 62.8607L51.2836 63.6302C51.799 63.3193 52.305 62.9941 52.8012 62.655L52.3139 61.9122ZM49.3121 63.7231C48.7967 63.9954 48.2728 64.2535 47.7411 64.4966L48.0994 65.3124C48.6461 65.0623 49.1847 64.797 49.7148 64.517L49.3121 63.7231ZM46.1299 65.1785C45.5881 65.3897 45.0391 65.5859 44.4833 65.7665L44.749 66.6184C45.3207 66.4325 45.8853 66.2309 46.4424 66.0136L46.1299 65.1785ZM42.8065 66.2587C42.2457 66.4059 41.6788 66.5376 41.1062 66.6532L41.2763 67.5301C41.865 67.4112 42.448 67.2759 43.0247 67.1244L42.8065 66.2587ZM39.3868 66.9492C38.8138 67.031 38.236 67.097 37.6535 67.1464L37.7262 68.0373C38.325 67.9865 38.9191 67.9187 39.5082 67.8346L39.3868 66.9492Z" fill="black"/>
<path d="M71.8263 21.2193C71.8263 16.7759 68.2968 13.1738 63.9429 13.1738C59.5891 13.1738 56.0596 16.7759 56.0596 21.2193C56.0596 25.6627 59.5891 29.2647 63.9429 29.2647C68.2968 29.2647 71.8263 25.6627 71.8263 21.2193Z" fill="black"/>
<path d="M64.1446 23.3757C64.6749 23.3235 65.1935 23.0532 65.5306 22.6602C66.0325 22.0753 66.192 21.2721 65.955 20.5452C65.8399 20.1922 65.6148 19.8451 65.3545 19.6124C64.7813 19.1002 63.9944 18.9374 63.2821 19.1792C62.9361 19.2967 62.596 19.5265 62.368 19.7921C61.8662 20.3771 61.7067 21.1802 61.9436 21.9072C62.0587 22.2602 62.2838 22.6073 62.5442 22.84C62.9873 23.236 63.5786 23.4314 64.1446 23.3757Z" fill="black" stroke="black"/>
</g>
<defs>
<clipPath id="clip0_370_92954">
<rect width="71.8261" height="68.8333" fill="white" transform="translate(0 2)"/>
</clipPath>
</defs>
</svg>
