<svg width="24" height="24" viewBox="0 0 24 24" fill="none" xmlns="http://www.w3.org/2000/svg">
<g clip-path="url(#clip0_296_13014)">
<path d="M7.74585 18.8725C10.0698 18.8725 12.07 17.4624 12.9374 15.4532C10.6868 14.2644 9.14934 11.8998 9.14934 9.18248C9.14934 6.54366 10.5992 4.23731 12.744 3.01753C11.7954 1.2248 9.91143 0 7.7459 0C4.62946 0 2.09399 2.53542 2.09399 5.65186V13.2206C2.09399 16.3371 4.62942 18.8725 7.74585 18.8725Z" fill="#47515D"/>
<path d="M17.1421 14.7854C20.2387 14.2834 22.3421 11.3662 21.8401 8.26955C21.3381 5.17293 18.4208 3.06956 15.3242 3.57154C12.2276 4.07353 10.1242 6.99078 10.6262 10.0874C11.1282 13.184 14.0454 15.2874 17.1421 14.7854Z" fill="#47515D"/>
<path d="M18.5807 22.5935C18.2336 22.2195 18.0059 21.7321 17.9652 21.1915L17.5804 16.1343C17.145 16.2182 16.6958 16.2627 16.2363 16.2627C15.7741 16.2627 15.3223 16.2177 14.8845 16.1328L14.5074 21.1914C14.4668 21.7321 14.239 22.2195 13.8919 22.5935H10.0915C9.74442 22.2195 9.51666 21.7321 9.47602 21.1915L9.39127 20.0778C8.86308 20.2044 8.3122 20.2719 7.74577 20.2719C7.17966 20.2719 6.62911 20.2045 6.1012 20.078L6.01819 21.1914C5.9775 21.7321 5.74973 22.2195 5.40267 22.5935H0V23.9998H24V22.5935H18.5807Z" fill="#47515D"/>
</g>
<defs>
<clipPath id="clip0_296_13014">
<rect width="24" height="24" fill="white"/>
</clipPath>
</defs>
</svg>
