<svg width="24" height="24" viewBox="0 0 24 24" fill="none" xmlns="http://www.w3.org/2000/svg">
<path d="M5.31333 11.531H0.495895L3.7748 9.2175H7.5008L5.31333 11.531ZM18.6866 11.531H23.504L20.2251 9.2175H16.4991L18.6866 11.531ZM9.40988 24H11.5043V17.1054H9.40988V24ZM12.2784 24H14.3728V17.1054H12.2784V24ZM23.9154 12.3052V24H15.147V16.7183V16.3312H14.7599H12.2784H11.5043H9.02279H8.63569V16.7183V24H0.0844727V12.3052H5.6468L8.82338 8.94563L11.6129 5.9955V0H12.387H16.6314L16.432 0.129844L14.1915 1.58873L16.432 3.04767L16.6314 3.17747H12.387V5.99545L15.1765 8.94558L18.3531 12.3051H23.9154V12.3052ZM3.79149 20.1606H1.58494V22.3671H3.79149V20.1606ZM3.79149 16.7183H1.58494V18.9248H3.79149V16.7183ZM7.32202 20.1606H5.11547V22.3671H7.32202V20.1606ZM7.32202 16.7183H5.11547V18.9248H7.32202V16.7183ZM13.8093 12.5699C13.8093 11.5706 12.9992 10.7605 12 10.7605C11.0007 10.7605 10.1906 11.5706 10.1906 12.5699C10.1906 13.5692 11.0007 14.3793 12 14.3793C12.9992 14.3793 13.8093 13.5692 13.8093 12.5699ZM18.8844 20.1606H16.6779V22.3671H18.8844V20.1606ZM18.8844 16.7183H16.6779V18.9248H18.8844V16.7183ZM22.415 20.1606H20.2084V22.3671H22.415V20.1606ZM22.415 16.7183H20.2084V18.9248H22.415V16.7183Z" fill="#9A9A9A"/>
</svg>
