<svg width="24" height="24" viewBox="0 0 24 24" fill="none" xmlns="http://www.w3.org/2000/svg">
<g opacity="0.6">
<path d="M24 16.4046C24 15.4891 23.4104 14.7159 22.5938 14.4247V7.14061L24 6.56081L12 1.74609L0 6.56081L12 11.3756L21.1875 7.70527V14.4247C20.3708 14.7159 19.7812 15.4891 19.7812 16.4046C19.7812 17.2427 20.2762 17.9621 20.986 18.3021L19.8177 21.8071L21.1511 22.252L21.8906 20.0335L22.6301 22.252L23.9636 21.8071L22.7953 18.3021C23.505 17.9622 24 17.2427 24 16.4046Z" fill="#9A9A9A"/>
<path d="M12 12.8926L5.67188 10.3516V12.1874C5.67188 14.1917 8.39236 15.703 12 15.703C15.6076 15.703 18.3281 14.1917 18.3281 12.1874V10.3516L12 12.8926Z" fill="#9A9A9A"/>
</g>
</svg>
