<svg width="33" height="32" viewBox="0 0 33 32" fill="none" xmlns="http://www.w3.org/2000/svg">
<path d="M11.1667 4H7.16667C6.45942 4 5.78115 4.28095 5.28105 4.78105C4.78095 5.28115 4.5 5.95942 4.5 6.66667V10.6667" stroke="black" stroke-width="2" stroke-linecap="round" stroke-linejoin="round"/>
<path d="M28.4999 10.6667V6.66667C28.4999 5.95942 28.219 5.28115 27.7189 4.78105C27.2188 4.28095 26.5405 4 25.8333 4H21.8333" stroke="black" stroke-width="2" stroke-linecap="round" stroke-linejoin="round"/>
<path d="M4.5 21.334V25.334C4.5 26.0412 4.78095 26.7195 5.28105 27.2196C5.78115 27.7197 6.45942 28.0007 7.16667 28.0007H11.1667" stroke="black" stroke-width="2" stroke-linecap="round" stroke-linejoin="round"/>
<path d="M21.8333 28.0007H25.8333C26.5405 28.0007 27.2188 27.7197 27.7189 27.2196C28.219 26.7195 28.4999 26.0412 28.4999 25.334V21.334" stroke="black" stroke-width="2" stroke-linecap="round" stroke-linejoin="round"/>
</svg>
